<svg width="26" height="27" viewBox="0 0 26 27" fill="none" xmlns="http://www.w3.org/2000/svg">
<g filter="url(#filter0_d_23_318)">
<path d="M19.2 10.9134C19.0167 10.9134 18.825 10.8551 18.6417 10.8134C18.2704 10.7316 17.9055 10.623 17.55 10.4884C17.1634 10.3477 16.7384 10.355 16.3569 10.5089C15.9754 10.6627 15.6642 10.9522 15.4833 11.3217L15.3 11.6967C14.4883 11.2452 13.7425 10.6844 13.0833 10.0301C12.429 9.3709 11.8682 8.62505 11.4167 7.81338L11.7667 7.58005C12.1361 7.39915 12.4256 7.08799 12.5795 6.70646C12.7333 6.32493 12.7406 5.89998 12.6 5.51338C12.4677 5.15707 12.3591 4.79238 12.275 4.42172C12.2333 4.23838 12.2 4.04672 12.175 3.85505C12.0738 3.26807 11.7663 2.7365 11.308 2.35608C10.8497 1.97566 10.2706 1.77139 9.67499 1.78005H7.17499C6.81585 1.77668 6.4602 1.85073 6.13225 1.99716C5.8043 2.14359 5.51175 2.35896 5.27452 2.62862C5.03728 2.89827 4.86094 3.21588 4.75748 3.55981C4.65403 3.90374 4.62589 4.26593 4.67499 4.62172C5.11894 8.11287 6.71335 11.3566 9.20637 13.8406C11.6994 16.3245 14.9489 17.9071 18.4417 18.3384H18.7583C19.3728 18.3393 19.9662 18.1138 20.425 17.7051C20.6886 17.4693 20.8992 17.1802 21.0429 16.857C21.1865 16.5338 21.26 16.1837 21.2583 15.8301V13.3301C21.2481 12.7512 21.0373 12.1938 20.6619 11.7531C20.2866 11.3124 19.7698 11.0156 19.2 10.9134ZM19.6167 15.9134C19.6165 16.0317 19.5912 16.1486 19.5423 16.2564C19.4935 16.3642 19.4222 16.4603 19.3333 16.5384C19.2402 16.6188 19.1313 16.6788 19.0137 16.7147C18.896 16.7506 18.7721 16.7615 18.65 16.7467C15.5291 16.3466 12.6302 14.9188 10.4106 12.6886C8.19099 10.4585 6.777 7.55283 6.39166 4.43005C6.3784 4.30798 6.39002 4.18449 6.42583 4.06704C6.46164 3.94959 6.52088 3.84062 6.59999 3.74672C6.67808 3.65783 6.77421 3.58658 6.88197 3.53773C6.98974 3.48888 7.10667 3.46353 7.22499 3.46338H9.72499C9.91878 3.45907 10.108 3.52245 10.2601 3.64261C10.4122 3.76277 10.5177 3.93219 10.5583 4.12172C10.5917 4.34949 10.6333 4.57449 10.6833 4.79672C10.7796 5.236 10.9077 5.6677 11.0667 6.08838L9.89999 6.63005C9.80024 6.67582 9.71051 6.74084 9.63596 6.82138C9.5614 6.90192 9.50349 6.9964 9.46555 7.09938C9.42761 7.20236 9.41039 7.31183 9.41487 7.42148C9.41935 7.53114 9.44544 7.63884 9.49166 7.73838C10.691 10.3073 12.756 12.3724 15.325 13.5717C15.5279 13.6551 15.7554 13.6551 15.9583 13.5717C16.0623 13.5345 16.1578 13.4771 16.2393 13.4027C16.3208 13.3283 16.3868 13.2385 16.4333 13.1384L16.95 11.9717C17.3808 12.1258 17.8205 12.2538 18.2667 12.3551C18.4889 12.4051 18.7139 12.4467 18.9417 12.4801C19.1312 12.5207 19.3006 12.6262 19.4208 12.7783C19.5409 12.9304 19.6043 13.1196 19.6 13.3134L19.6167 15.9134Z" fill="#9700FF"/>
</g>
<defs>
<filter id="filter0_d_23_318" x="-1" y="0.0800781" width="28" height="28" filterUnits="userSpaceOnUse" color-interpolation-filters="sRGB">
<feFlood flood-opacity="0" result="BackgroundImageFix"/>
<feColorMatrix in="SourceAlpha" type="matrix" values="0 0 0 0 0 0 0 0 0 0 0 0 0 0 0 0 0 0 127 0" result="hardAlpha"/>
<feOffset dy="4"/>
<feGaussianBlur stdDeviation="2"/>
<feComposite in2="hardAlpha" operator="out"/>
<feColorMatrix type="matrix" values="0 0 0 0 0 0 0 0 0 0 0 0 0 0 0 0 0 0 0.25 0"/>
<feBlend mode="normal" in2="BackgroundImageFix" result="effect1_dropShadow_23_318"/>
<feBlend mode="normal" in="SourceGraphic" in2="effect1_dropShadow_23_318" result="shape"/>
</filter>
</defs>
</svg>
