<svg width="21" height="16" viewBox="0 0 21 16" fill="none" xmlns="http://www.w3.org/2000/svg">
<g clip-path="url(#clip0_23_366)">
<path d="M0.973999 2.29634V1.77921C0.973999 1.44499 1.1057 1.12446 1.34012 0.888136C1.57454 0.65181 1.89248 0.519043 2.224 0.519043L19.724 0.519043C20.0555 0.519043 20.3735 0.65181 20.6079 0.888136C20.8423 1.12446 20.974 1.44499 20.974 1.77921V2.29634L10.974 8.59716L0.973999 2.29634ZM11.3052 9.87465C11.2059 9.93716 11.0911 9.97031 10.974 9.97031C10.8569 9.97031 10.7421 9.93716 10.6427 9.87465L0.973999 3.78239V14.3808C0.973999 14.715 1.1057 15.0356 1.34012 15.2719C1.57454 15.5082 1.89248 15.641 2.224 15.641H19.724C20.0555 15.641 20.3735 15.5082 20.6079 15.2719C20.8423 15.0356 20.974 14.715 20.974 14.3808V3.78239L11.3052 9.87465Z" fill="#9700FF"/>
</g>
<defs>
<clipPath id="clip0_23_366">
<rect width="20" height="15.122" fill="white" transform="translate(0.973999 0.519043)"/>
</clipPath>
</defs>
</svg>
