<svg width="21" height="20" viewBox="0 0 21 20" fill="none" xmlns="http://www.w3.org/2000/svg">
<path d="M10.1726 1.94995C8.40513 1.95189 6.71059 2.63776 5.46078 3.85709C4.21097 5.07642 3.50795 6.72963 3.50597 8.45402C3.50597 11.1004 5.47513 13.2979 7.56097 15.6239C8.22097 16.3605 8.9043 17.1223 9.51263 17.893C9.59048 17.9916 9.69047 18.0714 9.80489 18.1262C9.91931 18.1811 10.0451 18.2097 10.1726 18.2097C10.3001 18.2097 10.426 18.1811 10.5404 18.1262C10.6548 18.0714 10.7548 17.9916 10.8326 17.893C11.441 17.1223 12.1243 16.3605 12.7843 15.6239C14.8701 13.2979 16.8393 11.1004 16.8393 8.45402C16.8373 6.72963 16.1343 5.07642 14.8845 3.85709C13.6347 2.63776 11.9401 1.95189 10.1726 1.94995ZM10.1726 10.893C9.67818 10.893 9.19483 10.75 8.78371 10.482C8.37258 10.214 8.05215 9.83306 7.86293 9.38739C7.67372 8.94172 7.62421 8.45131 7.72067 7.97819C7.81713 7.50506 8.05523 7.07047 8.40487 6.72937C8.7545 6.38826 9.19995 6.15597 9.68491 6.06186C10.1699 5.96775 10.6725 6.01605 11.1293 6.20065C11.5862 6.38526 11.9766 6.69787 12.2513 7.09897C12.526 7.50006 12.6726 7.97162 12.6726 8.45402C12.6726 9.10089 12.4092 9.72126 11.9404 10.1787C11.4716 10.6361 10.8357 10.893 10.1726 10.893Z" fill="#9700FF"/>
</svg>
