<svg width="209" height="21" viewBox="0 0 209 21" fill="none" xmlns="http://www.w3.org/2000/svg">
<path d="M192.122 15.2599V4.5799H193.362L193.702 5.7599C194.235 5.38657 194.828 5.06657 195.482 4.7999C196.148 4.53324 196.888 4.3999 197.702 4.3999C198.368 4.3999 198.935 4.55324 199.402 4.8599C199.882 5.15324 200.242 5.52657 200.482 5.9799C200.815 5.7399 201.215 5.4999 201.682 5.2599C202.162 5.0199 202.668 4.8199 203.202 4.6599C203.748 4.48657 204.275 4.3999 204.782 4.3999C205.555 4.3999 206.188 4.56657 206.682 4.8999C207.175 5.2199 207.535 5.6599 207.762 6.2199C208.002 6.76657 208.122 7.3799 208.122 8.0599V15.2599H206.542V8.1799C206.542 7.72657 206.448 7.32657 206.262 6.9799C206.088 6.6199 205.835 6.3399 205.502 6.1399C205.168 5.9399 204.762 5.8399 204.282 5.8399C203.682 5.8399 203.068 5.95324 202.442 6.1799C201.815 6.40657 201.235 6.6799 200.702 6.9999C200.768 7.1999 200.815 7.3999 200.842 7.5999C200.882 7.78657 200.902 7.98657 200.902 8.1999V15.2599H199.322V8.1799C199.322 7.72657 199.228 7.32657 199.042 6.9799C198.868 6.6199 198.615 6.3399 198.282 6.1399C197.962 5.9399 197.562 5.8399 197.082 5.8399C196.642 5.8399 196.228 5.88657 195.842 5.9799C195.468 6.0599 195.108 6.1799 194.762 6.3399C194.428 6.48657 194.075 6.66657 193.702 6.8799V15.2599H192.122Z" fill="white"/>
<path d="M185.219 15.3799C184.445 15.3799 183.765 15.2999 183.179 15.1399C182.605 14.9799 182.125 14.6999 181.739 14.2999C181.352 13.8999 181.065 13.3466 180.879 12.6399C180.692 11.9199 180.599 11.0066 180.599 9.89994C180.599 8.77994 180.692 7.86661 180.879 7.15994C181.065 6.43994 181.352 5.88661 181.739 5.49994C182.125 5.09994 182.605 4.82661 183.179 4.67994C183.765 4.51994 184.445 4.43994 185.219 4.43994C185.992 4.43994 186.665 4.51994 187.239 4.67994C187.825 4.83994 188.312 5.11994 188.699 5.51994C189.085 5.90661 189.372 6.45994 189.559 7.17994C189.759 7.88661 189.859 8.79327 189.859 9.89994C189.859 11.0199 189.759 11.9399 189.559 12.6599C189.372 13.3666 189.085 13.9199 188.699 14.3199C188.325 14.7066 187.845 14.9799 187.259 15.1399C186.672 15.2999 185.992 15.3799 185.219 15.3799ZM185.219 14.0799C185.712 14.0799 186.145 14.0333 186.519 13.9399C186.905 13.8466 187.225 13.6599 187.479 13.3799C187.732 13.0999 187.925 12.6799 188.059 12.1199C188.192 11.5599 188.259 10.8199 188.259 9.89994C188.259 8.96661 188.192 8.22661 188.059 7.67994C187.925 7.13327 187.732 6.71994 187.479 6.43994C187.225 6.15994 186.905 5.97327 186.519 5.87994C186.145 5.78661 185.712 5.73994 185.219 5.73994C184.712 5.73994 184.272 5.78661 183.899 5.87994C183.525 5.97327 183.212 6.15994 182.959 6.43994C182.705 6.71994 182.512 7.13327 182.379 7.67994C182.245 8.22661 182.179 8.96661 182.179 9.89994C182.179 10.8199 182.245 11.5599 182.379 12.1199C182.512 12.6799 182.705 13.0999 182.959 13.3799C183.212 13.6599 183.525 13.8466 183.899 13.9399C184.272 14.0333 184.712 14.0799 185.219 14.0799Z" fill="white"/>
<path d="M175.454 15.38C174.854 15.38 174.294 15.3 173.774 15.14C173.254 14.98 172.801 14.7 172.414 14.3C172.027 13.9 171.727 13.3466 171.514 12.64C171.301 11.9333 171.194 11.0333 171.194 9.93996C171.194 8.83329 171.294 7.92663 171.494 7.21996C171.694 6.49996 171.981 5.93996 172.354 5.53996C172.727 5.13996 173.181 4.85996 173.714 4.69996C174.247 4.53996 174.841 4.45996 175.494 4.45996C176.027 4.45996 176.607 4.48663 177.234 4.53996C177.861 4.57996 178.461 4.64663 179.034 4.73996V5.67996H175.914C175.234 5.67996 174.661 5.79329 174.194 6.01996C173.727 6.24663 173.374 6.67329 173.134 7.29996C172.894 7.91329 172.774 8.80663 172.774 9.97996C172.774 11.1133 172.901 11.98 173.154 12.58C173.407 13.18 173.767 13.5933 174.234 13.82C174.701 14.0333 175.267 14.14 175.934 14.14H179.194V15.06C178.887 15.1133 178.527 15.1666 178.114 15.22C177.714 15.2733 177.287 15.3133 176.834 15.34C176.381 15.3666 175.921 15.38 175.454 15.38Z" fill="white"/>
<path d="M168.01 15.28C167.797 15.28 167.69 15.1734 167.69 14.96V13.36C167.69 13.1467 167.797 13.04 168.01 13.04H168.89C169.104 13.04 169.21 13.1467 169.21 13.36V14.96C169.21 15.0667 169.177 15.1467 169.11 15.2C169.057 15.2534 168.984 15.28 168.89 15.28H168.01Z" fill="white"/>
<path d="M165.291 15.28C164.678 15.28 164.165 15.1733 163.751 14.96C163.338 14.7333 163.025 14.3733 162.811 13.88C162.598 13.3733 162.491 12.6933 162.491 11.84V0H164.071V11.64C164.071 12.28 164.131 12.7667 164.251 13.1C164.371 13.42 164.545 13.6467 164.771 13.78C164.998 13.9 165.265 13.98 165.571 14.02L166.651 14.14V15.28H165.291Z" fill="white"/>
<path d="M158.502 2.67998C158.289 2.67998 158.182 2.57331 158.182 2.35998V0.79998C158.182 0.586647 158.289 0.47998 158.502 0.47998H159.622C159.729 0.47998 159.802 0.513314 159.842 0.57998C159.896 0.633314 159.922 0.706647 159.922 0.79998V2.35998C159.922 2.57331 159.822 2.67998 159.622 2.67998H158.502ZM158.262 15.26V4.57998H159.842V15.26H158.262Z" fill="white"/>
<path d="M149.844 15.3801C149.057 15.3801 148.411 15.1467 147.904 14.6801C147.397 14.2134 147.144 13.5534 147.144 12.7001V11.9401C147.144 11.1001 147.417 10.4201 147.964 9.90006C148.524 9.38006 149.364 9.12006 150.484 9.12006H154.104V7.80006C154.104 7.36006 154.024 6.98672 153.864 6.68006C153.717 6.36006 153.444 6.11339 153.044 5.94006C152.657 5.76672 152.091 5.68006 151.344 5.68006H148.024V4.74006C148.491 4.66006 149.031 4.58672 149.644 4.52006C150.271 4.45339 151.004 4.42006 151.844 4.42006C152.711 4.40672 153.431 4.51339 154.004 4.74006C154.577 4.96672 154.997 5.32672 155.264 5.82006C155.544 6.30006 155.684 6.93339 155.684 7.72006V15.2601H154.464L154.164 14.0401C154.111 14.0934 153.944 14.1867 153.664 14.3201C153.397 14.4534 153.051 14.6067 152.624 14.7801C152.211 14.9401 151.757 15.0801 151.264 15.2001C150.784 15.3201 150.311 15.3801 149.844 15.3801ZM150.504 14.2001C150.744 14.2134 151.017 14.1867 151.324 14.1201C151.631 14.0534 151.944 13.9801 152.264 13.9001C152.584 13.8067 152.877 13.7134 153.144 13.6201C153.424 13.5267 153.651 13.4467 153.824 13.3801C153.997 13.3134 154.091 13.2801 154.104 13.2801V9.92006L150.844 10.0601C150.084 10.0867 149.537 10.2734 149.204 10.6201C148.884 10.9667 148.724 11.4134 148.724 11.9601V12.4401C148.724 12.8667 148.811 13.2134 148.984 13.4801C149.171 13.7334 149.397 13.9134 149.664 14.0201C149.944 14.1267 150.224 14.1867 150.504 14.2001Z" fill="white"/>
<path d="M129.199 15.2599V4.5799H130.439L130.779 5.7599C131.312 5.38657 131.906 5.06657 132.559 4.7999C133.226 4.53324 133.966 4.3999 134.779 4.3999C135.446 4.3999 136.012 4.55324 136.479 4.8599C136.959 5.15324 137.319 5.52657 137.559 5.9799C137.892 5.7399 138.292 5.4999 138.759 5.2599C139.239 5.0199 139.746 4.8199 140.279 4.6599C140.826 4.48657 141.352 4.3999 141.859 4.3999C142.632 4.3999 143.266 4.56657 143.759 4.8999C144.252 5.2199 144.612 5.6599 144.839 6.2199C145.079 6.76657 145.199 7.3799 145.199 8.0599V15.2599H143.619V8.1799C143.619 7.72657 143.526 7.32657 143.339 6.9799C143.166 6.6199 142.912 6.3399 142.579 6.1399C142.246 5.9399 141.839 5.8399 141.359 5.8399C140.759 5.8399 140.146 5.95324 139.519 6.1799C138.892 6.40657 138.312 6.6799 137.779 6.9999C137.846 7.1999 137.892 7.3999 137.919 7.5999C137.959 7.78657 137.979 7.98657 137.979 8.1999V15.2599H136.399V8.1799C136.399 7.72657 136.306 7.32657 136.119 6.9799C135.946 6.6199 135.692 6.3399 135.359 6.1399C135.039 5.9399 134.639 5.8399 134.159 5.8399C133.719 5.8399 133.306 5.88657 132.919 5.9799C132.546 6.0599 132.186 6.1799 131.839 6.3399C131.506 6.48657 131.152 6.66657 130.779 6.8799V15.2599H129.199Z" fill="white"/>
<path d="M120.696 20.1601C120.002 20.1601 119.389 20.0601 118.856 19.8601C118.336 19.6734 117.922 19.3801 117.616 18.9801C117.322 18.5934 117.176 18.1067 117.176 17.5201V17.0401C117.176 16.4267 117.342 15.9134 117.676 15.5001C118.022 15.0867 118.456 14.7801 118.976 14.5801C119.496 14.3667 120.029 14.2601 120.576 14.2601L120.976 14.9001C120.576 14.9001 120.202 14.9667 119.856 15.1001C119.509 15.2201 119.222 15.4201 118.996 15.7001C118.782 15.9801 118.676 16.3401 118.676 16.7801V17.2201C118.676 17.8601 118.889 18.3134 119.316 18.5801C119.742 18.8601 120.322 19.0001 121.056 19.0001H123.536C124.336 19.0001 124.962 18.8467 125.416 18.5401C125.882 18.2334 126.116 17.7534 126.116 17.1001V16.7001C126.116 16.3267 126.042 16.0067 125.896 15.7401C125.749 15.4734 125.502 15.2667 125.156 15.1201C124.822 14.9734 124.349 14.9001 123.736 14.9001H120.516C119.689 14.9001 119.042 14.7267 118.576 14.3801C118.122 14.0201 117.896 13.5601 117.896 13.0001C117.896 12.4667 118.049 12.0467 118.356 11.7401C118.676 11.4334 119.122 11.2201 119.696 11.1001C119.202 10.9001 118.816 10.6334 118.536 10.3001C118.256 9.95339 118.062 9.58673 117.956 9.20006C117.849 8.80006 117.796 8.40006 117.796 8.00006C117.796 7.17339 117.962 6.50673 118.296 6.00006C118.629 5.49339 119.102 5.12673 119.716 4.90006C120.342 4.67339 121.076 4.56006 121.916 4.56006H127.616V5.46006L125.216 5.66006C125.389 5.78006 125.582 5.94006 125.796 6.14006C126.009 6.32673 126.189 6.60006 126.336 6.96006C126.496 7.30673 126.576 7.78673 126.576 8.40006C126.576 8.94673 126.456 9.46673 126.216 9.96006C125.989 10.4534 125.602 10.8601 125.056 11.1801C124.509 11.4867 123.756 11.6401 122.796 11.6401H121.096C120.536 11.6401 120.089 11.7267 119.756 11.9001C119.436 12.0601 119.276 12.3534 119.276 12.7801C119.276 13.1001 119.396 13.3267 119.636 13.4601C119.876 13.5934 120.129 13.6601 120.396 13.6601H123.936C124.762 13.6601 125.442 13.7667 125.976 13.9801C126.522 14.1934 126.929 14.5201 127.196 14.9601C127.476 15.3867 127.616 15.9334 127.616 16.6001V17.0401C127.616 18.0134 127.282 18.7734 126.616 19.3201C125.962 19.8801 124.982 20.1601 123.676 20.1601H120.696ZM121.436 10.4201H122.636C123.316 10.4201 123.829 10.3201 124.176 10.1201C124.536 9.90673 124.782 9.63339 124.916 9.30006C125.049 8.96673 125.116 8.60673 125.116 8.22006C125.116 7.62006 125.016 7.14673 124.816 6.80006C124.629 6.44006 124.362 6.18673 124.016 6.04006C123.669 5.88006 123.269 5.80006 122.816 5.80006H121.676C120.916 5.80006 120.316 5.97339 119.876 6.32006C119.449 6.65339 119.236 7.24006 119.236 8.08006C119.236 8.90673 119.429 9.50673 119.816 9.88006C120.216 10.2401 120.756 10.4201 121.436 10.4201Z" fill="white"/>
<path d="M104.735 18.5401C104.201 18.5401 103.701 18.4601 103.235 18.3001C102.768 18.1535 102.361 17.9201 102.015 17.6001C101.668 17.2801 101.395 16.8668 101.195 16.3601C101.008 15.8668 100.915 15.2801 100.915 14.6001V8.16012C100.915 7.89345 100.941 7.60012 100.995 7.28012C101.048 6.96012 101.141 6.64012 101.275 6.32012C101.421 5.98678 101.635 5.68678 101.915 5.42012C102.208 5.14012 102.581 4.91345 103.035 4.74012C103.488 4.56678 104.055 4.48012 104.735 4.48012H108.555C108.955 4.48012 109.348 4.52012 109.735 4.60012C110.135 4.68012 110.495 4.82678 110.815 5.04012C111.135 5.25345 111.388 5.56012 111.575 5.96012C111.775 6.34678 111.875 6.85345 111.875 7.48012V14.7201H110.895L110.655 13.5201C110.641 13.5201 110.515 13.5935 110.275 13.7401C110.035 13.8735 109.728 14.0335 109.355 14.2201C108.981 14.3935 108.561 14.5535 108.095 14.7001C107.641 14.8335 107.188 14.9001 106.735 14.9001C106.188 14.9001 105.721 14.7868 105.335 14.5601C104.961 14.3201 104.675 14.0068 104.475 13.6201C104.275 13.2335 104.175 12.8135 104.175 12.3601V11.4401C104.175 10.6668 104.415 10.0668 104.895 9.64012C105.375 9.20012 106.055 8.98012 106.935 8.98012H110.615V7.58012C110.615 6.91345 110.428 6.44012 110.055 6.16012C109.695 5.88012 109.195 5.74012 108.555 5.74012H104.735C104.241 5.74012 103.801 5.81345 103.415 5.96012C103.041 6.10678 102.741 6.36012 102.515 6.72012C102.288 7.08012 102.175 7.58012 102.175 8.22012V14.4601C102.175 15.1935 102.308 15.7601 102.575 16.1601C102.841 16.5735 103.168 16.8601 103.555 17.0201C103.955 17.1801 104.348 17.2601 104.735 17.2601H111.115C112.075 17.2601 112.768 17.0201 113.195 16.5401C113.635 16.0601 113.855 15.3668 113.855 14.4601V4.88012C113.855 3.98678 113.621 3.26678 113.155 2.72012C112.701 2.16012 112.021 1.88012 111.115 1.88012H103.235V0.940118C103.555 0.873451 104.021 0.820118 104.635 0.780118C105.261 0.726784 105.968 0.686784 106.755 0.660118C107.541 0.633451 108.355 0.620117 109.195 0.620117H111.115C111.661 0.620117 112.175 0.706784 112.655 0.880117C113.135 1.04012 113.561 1.29345 113.935 1.64012C114.308 1.97345 114.595 2.40678 114.795 2.94012C115.008 3.47345 115.115 4.12012 115.115 4.88012V14.4601C115.115 15.3135 114.981 16.0401 114.715 16.6401C114.448 17.2535 114.028 17.7201 113.455 18.0401C112.881 18.3735 112.121 18.5401 111.175 18.5401H104.735ZM107.215 13.6401C107.548 13.6401 107.928 13.5868 108.355 13.4801C108.795 13.3601 109.215 13.2201 109.615 13.0601C110.028 12.9001 110.361 12.7401 110.615 12.5801V9.84012L107.215 10.0201C106.975 10.0335 106.721 10.0735 106.455 10.1401C106.188 10.1935 105.961 10.3201 105.775 10.5201C105.588 10.7201 105.495 11.0201 105.495 11.4201V12.1201C105.495 12.5868 105.641 12.9601 105.935 13.2401C106.241 13.5068 106.668 13.6401 107.215 13.6401Z" fill="white"/>
<path d="M93.1726 15.26V4.57996H94.3726L94.7526 6.43996C95.2326 5.86663 95.7659 5.39329 96.3526 5.01996C96.9526 4.64663 97.6392 4.45996 98.4126 4.45996C98.5992 4.45996 98.7726 4.46663 98.9326 4.47996C99.1059 4.49329 99.2659 4.51996 99.4126 4.55996V6.17996C99.2392 6.15329 99.0526 6.13329 98.8526 6.11996C98.6526 6.09329 98.4526 6.07996 98.2526 6.07996C97.7592 6.07996 97.3192 6.13996 96.9326 6.25996C96.5459 6.37996 96.1792 6.55996 95.8326 6.79996C95.4859 7.03996 95.1259 7.33329 94.7526 7.67996V15.26H93.1726Z" fill="white"/>
<path d="M86.2696 15.3799C85.4963 15.3799 84.8163 15.2999 84.2296 15.1399C83.6563 14.9799 83.1763 14.6999 82.7896 14.2999C82.403 13.8999 82.1163 13.3466 81.9296 12.6399C81.743 11.9199 81.6496 11.0066 81.6496 9.89994C81.6496 8.77994 81.743 7.86661 81.9296 7.15994C82.1163 6.43994 82.403 5.88661 82.7896 5.49994C83.1763 5.09994 83.6563 4.82661 84.2296 4.67994C84.8163 4.51994 85.4963 4.43994 86.2696 4.43994C87.043 4.43994 87.7163 4.51994 88.2896 4.67994C88.8763 4.83994 89.363 5.11994 89.7496 5.51994C90.1363 5.90661 90.423 6.45994 90.6096 7.17994C90.8096 7.88661 90.9096 8.79327 90.9096 9.89994C90.9096 11.0199 90.8096 11.9399 90.6096 12.6599C90.423 13.3666 90.1363 13.9199 89.7496 14.3199C89.3763 14.7066 88.8963 14.9799 88.3096 15.1399C87.723 15.2999 87.043 15.3799 86.2696 15.3799ZM86.2696 14.0799C86.763 14.0799 87.1963 14.0333 87.5696 13.9399C87.9563 13.8466 88.2763 13.6599 88.5296 13.3799C88.783 13.0999 88.9763 12.6799 89.1096 12.1199C89.243 11.5599 89.3096 10.8199 89.3096 9.89994C89.3096 8.96661 89.243 8.22661 89.1096 7.67994C88.9763 7.13327 88.783 6.71994 88.5296 6.43994C88.2763 6.15994 87.9563 5.97327 87.5696 5.87994C87.1963 5.78661 86.763 5.73994 86.2696 5.73994C85.763 5.73994 85.323 5.78661 84.9496 5.87994C84.5763 5.97327 84.263 6.15994 84.0096 6.43994C83.7563 6.71994 83.563 7.13327 83.4296 7.67994C83.2963 8.22661 83.2296 8.96661 83.2296 9.89994C83.2296 10.8199 83.2963 11.5599 83.4296 12.1199C83.563 12.6799 83.7563 13.0999 84.0096 13.3799C84.263 13.6599 84.5763 13.8466 84.9496 13.9399C85.323 14.0333 85.763 14.0799 86.2696 14.0799Z" fill="white"/>
<path d="M78.6259 15.2601C77.9325 15.2601 77.3592 15.1468 76.9059 14.9201C76.4526 14.6934 76.1192 14.3268 75.9059 13.8201C75.6925 13.3134 75.5925 12.6401 75.6059 11.8001L75.6659 5.8801H73.9659V4.8601L75.6859 4.5801L75.9459 1.6001H77.1659V4.5801H80.2459V5.8801H77.1659V11.8001C77.1659 12.2668 77.2125 12.6401 77.3059 12.9201C77.4125 13.2001 77.5459 13.4134 77.7059 13.5601C77.8792 13.7068 78.0592 13.8134 78.2459 13.8801C78.4325 13.9334 78.6125 13.9668 78.7859 13.9801L80.0859 14.1001V15.2601H78.6259Z" fill="white"/>
<path d="M71.097 2.67998C70.8836 2.67998 70.777 2.57331 70.777 2.35998V0.79998C70.777 0.586647 70.8836 0.47998 71.097 0.47998H72.217C72.3236 0.47998 72.397 0.513314 72.437 0.57998C72.4903 0.633314 72.517 0.706647 72.517 0.79998V2.35998C72.517 2.57331 72.417 2.67998 72.217 2.67998H71.097ZM70.857 15.26V4.57998H72.437V15.26H70.857Z" fill="white"/>
<path d="M63.213 15.38C62.333 15.38 61.6064 15.1933 61.033 14.82C60.473 14.4333 60.053 13.8467 59.773 13.06C59.5064 12.26 59.373 11.24 59.373 10C59.373 8.68 59.5064 7.61333 59.773 6.8C60.0397 5.97333 60.4664 5.37333 61.053 5C61.6397 4.62667 62.4264 4.44 63.413 4.44C64.013 4.44 64.5997 4.50667 65.173 4.64C65.7464 4.77333 66.253 4.92 66.693 5.08V0H68.273V15.26H66.993L66.693 14.18C66.493 14.3533 66.193 14.5333 65.793 14.72C65.4064 14.9067 64.9797 15.0667 64.513 15.2C64.0597 15.32 63.6264 15.38 63.213 15.38ZM63.673 14.08C64.2864 14.08 64.8397 13.9867 65.333 13.8C65.8397 13.6 66.293 13.3933 66.693 13.18V6.2C66.213 6.05333 65.753 5.93333 65.313 5.84C64.873 5.73333 64.3797 5.68 63.833 5.68C63.153 5.68 62.5997 5.80667 62.173 6.06C61.7464 6.31333 61.433 6.75333 61.233 7.38C61.0464 7.99333 60.953 8.84667 60.953 9.94C60.953 10.9267 61.0397 11.7267 61.213 12.34C61.3997 12.9533 61.693 13.4 62.093 13.68C62.493 13.9467 63.0197 14.08 63.673 14.08Z" fill="white"/>
<path d="M53.4128 15.3799C52.2928 15.3799 51.4061 15.2133 50.7528 14.8799C50.1128 14.5466 49.6528 13.9799 49.3728 13.1799C49.0928 12.3799 48.9528 11.2866 48.9528 9.89994C48.9528 8.48661 49.0928 7.38661 49.3728 6.59994C49.6661 5.79994 50.1394 5.23994 50.7928 4.91994C51.4461 4.59994 52.3261 4.43994 53.4328 4.43994C54.3794 4.43994 55.1461 4.54661 55.7328 4.75994C56.3328 4.97327 56.7728 5.33994 57.0528 5.85994C57.3461 6.36661 57.4928 7.07327 57.4928 7.97994C57.4928 8.60661 57.3661 9.11327 57.1128 9.49994C56.8728 9.87327 56.5194 10.1466 56.0528 10.3199C55.5994 10.4799 55.0594 10.5599 54.4328 10.5599H50.5328C50.5461 11.4266 50.6394 12.1266 50.8128 12.6599C50.9861 13.1799 51.2994 13.5599 51.7528 13.7999C52.2194 14.0266 52.8994 14.1399 53.7928 14.1399H57.2328V15.0999C56.6194 15.1799 56.0194 15.2466 55.4328 15.2999C54.8461 15.3533 54.1728 15.3799 53.4128 15.3799ZM50.5128 9.51994H54.3128C54.9128 9.51994 55.3528 9.41327 55.6328 9.19994C55.9261 8.97327 56.0728 8.57327 56.0728 7.99994C56.0728 7.38661 55.9794 6.91327 55.7928 6.57994C55.6194 6.23327 55.3394 5.99327 54.9528 5.85994C54.5794 5.71327 54.0728 5.63994 53.4328 5.63994C52.6861 5.63994 52.0994 5.75327 51.6728 5.97994C51.2461 6.19327 50.9461 6.57994 50.7728 7.13994C50.5994 7.69994 50.5128 8.49327 50.5128 9.51994Z" fill="white"/>
<path d="M42.4298 15.3799C41.6565 15.3799 40.9765 15.2999 40.3898 15.1399C39.8165 14.9799 39.3364 14.6999 38.9498 14.2999C38.5631 13.8999 38.2764 13.3466 38.0898 12.6399C37.9031 11.9199 37.8098 11.0066 37.8098 9.89994C37.8098 8.77994 37.9031 7.86661 38.0898 7.15994C38.2764 6.43994 38.5631 5.88661 38.9498 5.49994C39.3364 5.09994 39.8165 4.82661 40.3898 4.67994C40.9765 4.51994 41.6565 4.43994 42.4298 4.43994C43.2031 4.43994 43.8764 4.51994 44.4498 4.67994C45.0364 4.83994 45.5231 5.11994 45.9098 5.51994C46.2965 5.90661 46.5831 6.45994 46.7698 7.17994C46.9698 7.88661 47.0698 8.79327 47.0698 9.89994C47.0698 11.0199 46.9698 11.9399 46.7698 12.6599C46.5831 13.3666 46.2965 13.9199 45.9098 14.3199C45.5365 14.7066 45.0565 14.9799 44.4698 15.1399C43.8831 15.2999 43.2031 15.3799 42.4298 15.3799ZM42.4298 14.0799C42.9231 14.0799 43.3565 14.0333 43.7298 13.9399C44.1165 13.8466 44.4365 13.6599 44.6898 13.3799C44.9431 13.0999 45.1364 12.6799 45.2698 12.1199C45.4031 11.5599 45.4698 10.8199 45.4698 9.89994C45.4698 8.96661 45.4031 8.22661 45.2698 7.67994C45.1364 7.13327 44.9431 6.71994 44.6898 6.43994C44.4365 6.15994 44.1165 5.97327 43.7298 5.87994C43.3565 5.78661 42.9231 5.73994 42.4298 5.73994C41.9231 5.73994 41.4831 5.78661 41.1098 5.87994C40.7364 5.97327 40.4231 6.15994 40.1698 6.43994C39.9165 6.71994 39.7231 7.13327 39.5898 7.67994C39.4565 8.22661 39.3898 8.96661 39.3898 9.89994C39.3898 10.8199 39.4565 11.5599 39.5898 12.1199C39.7231 12.6799 39.9165 13.0999 40.1698 13.3799C40.4231 13.6599 40.7364 13.8466 41.1098 13.9399C41.4831 14.0333 41.9231 14.0799 42.4298 14.0799Z" fill="white"/>
<path d="M31.8495 15.3799C30.7295 15.3799 29.8428 15.2133 29.1895 14.8799C28.5495 14.5466 28.0895 13.9799 27.8095 13.1799C27.5295 12.3799 27.3895 11.2866 27.3895 9.89994C27.3895 8.48661 27.5295 7.38661 27.8095 6.59994C28.1028 5.79994 28.5761 5.23994 29.2295 4.91994C29.8828 4.59994 30.7628 4.43994 31.8695 4.43994C32.8161 4.43994 33.5828 4.54661 34.1695 4.75994C34.7695 4.97327 35.2095 5.33994 35.4895 5.85994C35.7828 6.36661 35.9295 7.07327 35.9295 7.97994C35.9295 8.60661 35.8028 9.11327 35.5495 9.49994C35.3095 9.87327 34.9561 10.1466 34.4895 10.3199C34.0361 10.4799 33.4961 10.5599 32.8695 10.5599H28.9695C28.9828 11.4266 29.0761 12.1266 29.2495 12.6599C29.4228 13.1799 29.7361 13.5599 30.1895 13.7999C30.6561 14.0266 31.3361 14.1399 32.2295 14.1399H35.6695V15.0999C35.0561 15.1799 34.4561 15.2466 33.8695 15.2999C33.2828 15.3533 32.6095 15.3799 31.8495 15.3799ZM28.9495 9.51994H32.7495C33.3495 9.51994 33.7895 9.41327 34.0695 9.19994C34.3628 8.97327 34.5095 8.57327 34.5095 7.99994C34.5095 7.38661 34.4161 6.91327 34.2295 6.57994C34.0561 6.23327 33.7761 5.99327 33.3895 5.85994C33.0161 5.71327 32.5095 5.63994 31.8695 5.63994C31.1228 5.63994 30.5361 5.75327 30.1095 5.97994C29.6828 6.19327 29.3828 6.57994 29.2095 7.13994C29.0361 7.69994 28.9495 8.49327 28.9495 9.51994Z" fill="white"/>
<path d="M20.1256 15.38C19.2456 15.38 18.5189 15.1933 17.9456 14.82C17.3856 14.4333 16.9656 13.8467 16.6856 13.06C16.4189 12.26 16.2856 11.24 16.2856 10C16.2856 8.68 16.4189 7.61333 16.6856 6.8C16.9522 5.97333 17.3789 5.37333 17.9656 5C18.5522 4.62667 19.3389 4.44 20.3256 4.44C20.9256 4.44 21.5122 4.50667 22.0856 4.64C22.6589 4.77333 23.1656 4.92 23.6056 5.08V0H25.1856V15.26H23.9056L23.6056 14.18C23.4056 14.3533 23.1056 14.5333 22.7056 14.72C22.3189 14.9067 21.8922 15.0667 21.4256 15.2C20.9722 15.32 20.5389 15.38 20.1256 15.38ZM20.5856 14.08C21.1989 14.08 21.7522 13.9867 22.2456 13.8C22.7522 13.6 23.2056 13.3933 23.6056 13.18V6.2C23.1256 6.05333 22.6656 5.93333 22.2256 5.84C21.7856 5.73333 21.2922 5.68 20.7456 5.68C20.0656 5.68 19.5122 5.80667 19.0856 6.06C18.6589 6.31333 18.3456 6.75333 18.1456 7.38C17.9589 7.99333 17.8656 8.84667 17.8656 9.94C17.8656 10.9267 17.9522 11.7267 18.1256 12.34C18.3122 12.9533 18.6056 13.4 19.0056 13.68C19.4056 13.9467 19.9322 14.08 20.5856 14.08Z" fill="white"/>
<path d="M12.6767 2.67998C12.4633 2.67998 12.3567 2.57331 12.3567 2.35998V0.79998C12.3567 0.586647 12.4633 0.47998 12.6767 0.47998H13.7967C13.9033 0.47998 13.9767 0.513314 14.0167 0.57998C14.07 0.633314 14.0967 0.706647 14.0967 0.79998V2.35998C14.0967 2.57331 13.9967 2.67998 13.7967 2.67998H12.6767ZM12.4367 15.26V4.57998H14.0167V15.26H12.4367Z" fill="white"/>
<path d="M4.994 15.2601L0.973999 4.58008H2.594L5.914 13.7801L9.334 4.58008H10.934L6.794 15.2601H4.994Z" fill="white"/>
</svg>
